<svg width="672" height="495" viewBox="0 0 672 495" fill="none" xmlns="http://www.w3.org/2000/svg">
<path d="M544.925 49.992H548.157V53.304H549.853V49.992H553.085V48.456H549.853V45.144H548.157V48.456H544.925V49.992Z" fill="#121113" fill-opacity="0.25"/>
<path d="M468.64 49.992H471.872V53.304H473.568V49.992H476.8V48.456H473.568V45.144H471.872V48.456H468.64V49.992Z" fill="#121113" fill-opacity="0.25"/>
<path d="M392.356 49.992H395.588V53.304H397.284V49.992H400.516V48.456H397.284V45.144H395.588V48.456H392.356V49.992Z" fill="#121113" fill-opacity="0.25"/>
<path d="M316.072 49.992H319.304V53.304H321V49.992H324.232V48.456H321V45.144H319.304V48.456H316.072V49.992Z" fill="#121113" fill-opacity="0.25"/>
<path d="M239.787 49.992H243.019V53.304H244.715V49.992H247.947V48.456H244.715V45.144H243.019V48.456H239.787V49.992Z" fill="#121113" fill-opacity="0.25"/>
<path d="M163.503 49.992H166.735V53.304H168.431V49.992H171.663V48.456H168.431V45.144H166.735V48.456H163.503V49.992Z" fill="#121113" fill-opacity="0.25"/>
<path d="M87.2185 49.992H90.4505V53.304H92.1465V49.992H95.3785V48.456H92.1465V45.144H90.4505V48.456H87.2185V49.992Z" fill="#121113" fill-opacity="0.25"/>
<path d="M10.9341 49.992H14.1661V53.304H15.8621V49.992H19.0941V48.456H15.8621V45.144H14.1661V48.456H10.9341V49.992Z" fill="#121113" fill-opacity="0.25"/>
<path d="M544.925 115.585H548.157V118.897H549.853V115.585H553.085V114.049H549.853V110.737H548.157V114.049H544.925V115.585Z" fill="#121113" fill-opacity="0.25"/>
<path d="M468.64 115.585H471.872V118.897H473.568V115.585H476.8V114.049H473.568V110.737H471.872V114.049H468.64V115.585Z" fill="#121113" fill-opacity="0.25"/>
<path d="M392.356 115.585H395.588V118.897H397.284V115.585H400.516V114.049H397.284V110.737H395.588V114.049H392.356V115.585Z" fill="#121113" fill-opacity="0.25"/>
<path d="M316.072 115.585H319.304V118.897H321V115.585H324.232V114.049H321V110.737H319.304V114.049H316.072V115.585Z" fill="#121113" fill-opacity="0.25"/>
<path d="M239.787 115.585H243.019V118.897H244.715V115.585H247.947V114.049H244.715V110.737H243.019V114.049H239.787V115.585Z" fill="#121113" fill-opacity="0.25"/>
<path d="M163.503 115.585H166.735V118.897H168.431V115.585H171.663V114.049H168.431V110.737H166.735V114.049H163.503V115.585Z" fill="#121113" fill-opacity="0.25"/>
<path d="M87.2185 115.585H90.4505V118.897H92.1465V115.585H95.3785V114.049H92.1465V110.737H90.4505V114.049H87.2185V115.585Z" fill="#121113" fill-opacity="0.25"/>
<path d="M10.9341 115.585H14.1661V118.897H15.8621V115.585H19.0941V114.049H15.8621V110.737H14.1661V114.049H10.9341V115.585Z" fill="#121113" fill-opacity="0.25"/>
<path d="M544.925 181.177H548.157V184.489H549.853V181.177H553.085V179.641H549.853V176.329H548.157V179.641H544.925V181.177Z" fill="#121113" fill-opacity="0.25"/>
<path d="M468.64 181.177H471.872V184.489H473.568V181.177H476.8V179.641H473.568V176.329H471.872V179.641H468.64V181.177Z" fill="#121113" fill-opacity="0.25"/>
<path d="M392.356 181.177H395.588V184.489H397.284V181.177H400.516V179.641H397.284V176.329H395.588V179.641H392.356V181.177Z" fill="#121113" fill-opacity="0.25"/>
<path d="M316.072 181.177H319.304V184.489H321V181.177H324.232V179.641H321V176.329H319.304V179.641H316.072V181.177Z" fill="#121113" fill-opacity="0.25"/>
<path d="M239.787 181.177H243.019V184.489H244.715V181.177H247.947V179.641H244.715V176.329H243.019V179.641H239.787V181.177Z" fill="#121113" fill-opacity="0.25"/>
<path d="M163.503 181.177H166.735V184.489H168.431V181.177H171.663V179.641H168.431V176.329H166.735V179.641H163.503V181.177Z" fill="#121113" fill-opacity="0.25"/>
<path d="M87.2185 181.177H90.4505V184.489H92.1465V181.177H95.3785V179.641H92.1465V176.329H90.4505V179.641H87.2185V181.177Z" fill="#121113" fill-opacity="0.25"/>
<path d="M10.9341 181.177H14.1661V184.489H15.8621V181.177H19.0941V179.641H15.8621V176.329H14.1661V179.641H10.9341V181.177Z" fill="#121113" fill-opacity="0.25"/>
<path d="M544.925 246.77H548.157V250.082H549.853V246.77H553.085V245.234H549.853V241.922H548.157V245.234H544.925V246.77Z" fill="#121113" fill-opacity="0.25"/>
<path d="M468.64 246.77H471.872V250.082H473.568V246.77H476.8V245.234H473.568V241.922H471.872V245.234H468.64V246.77Z" fill="#121113" fill-opacity="0.25"/>
<path d="M392.356 246.77H395.588V250.082H397.284V246.77H400.516V245.234H397.284V241.922H395.588V245.234H392.356V246.77Z" fill="#121113" fill-opacity="0.25"/>
<path d="M316.072 246.77H319.304V250.082H321V246.77H324.232V245.234H321V241.922H319.304V245.234H316.072V246.77Z" fill="#121113" fill-opacity="0.25"/>
<path d="M239.787 246.77H243.019V250.082H244.715V246.77H247.947V245.234H244.715V241.922H243.019V245.234H239.787V246.77Z" fill="#121113" fill-opacity="0.25"/>
<path d="M163.503 246.77H166.735V250.082H168.431V246.77H171.663V245.234H168.431V241.922H166.735V245.234H163.503V246.77Z" fill="#121113" fill-opacity="0.25"/>
<path d="M87.2185 246.77H90.4505V250.082H92.1465V246.77H95.3785V245.234H92.1465V241.922H90.4505V245.234H87.2185V246.77Z" fill="#121113" fill-opacity="0.25"/>
<path d="M10.9341 246.77H14.1661V250.082H15.8621V246.77H19.0941V245.234H15.8621V241.922H14.1661V245.234H10.9341V246.77Z" fill="#121113" fill-opacity="0.25"/>
<path d="M672 0L-291 142.693L179.924 647L672 0Z" fill="#2AAA8A" fill-opacity="0.25"/>
<path d="M9.792 167.992H6.56V171.304H4.864V167.992H1.632V166.456H4.864V163.144H6.56V166.456H9.792V167.992Z" fill="#FF6700"/>
<path d="M25.792 167.992H22.56V171.304H20.864V167.992H17.632V166.456H20.864V163.144H22.56V166.456H25.792V167.992Z" fill="#FF6700"/>
<path d="M41.792 167.992H38.56V171.304H36.864V167.992H33.632V166.456H36.864V163.144H38.56V166.456H41.792V167.992Z" fill="#FF6700"/>
<path d="M57.792 167.992H54.56V171.304H52.864V167.992H49.632V166.456H52.864V163.144H54.56V166.456H57.792V167.992Z" fill="#FF6700"/>
<path d="M73.792 167.992H70.56V171.304H68.864V167.992H65.632V166.456H68.864V163.144H70.56V166.456H73.792V167.992Z" fill="#FF6700"/>
<path d="M89.792 167.992H86.56V171.304H84.864V167.992H81.632V166.456H84.864V163.144H86.56V166.456H89.792V167.992Z" fill="#FF6700"/>
<path d="M105.792 167.992H102.56V171.304H100.864V167.992H97.632V166.456H100.864V163.144H102.56V166.456H105.792V167.992Z" fill="#FF6700"/>
<path d="M9.792 195.992H6.56V199.304H4.864V195.992H1.632V194.456H4.864V191.144H6.56V194.456H9.792V195.992Z" fill="#FF6700"/>
<path d="M25.792 195.992H22.56V199.304H20.864V195.992H17.632V194.456H20.864V191.144H22.56V194.456H25.792V195.992Z" fill="#FF6700"/>
<path d="M41.792 195.992H38.56V199.304H36.864V195.992H33.632V194.456H36.864V191.144H38.56V194.456H41.792V195.992Z" fill="#FF6700"/>
<path d="M57.792 195.992H54.56V199.304H52.864V195.992H49.632V194.456H52.864V191.144H54.56V194.456H57.792V195.992Z" fill="#FF6700"/>
<path d="M73.792 195.992H70.56V199.304H68.864V195.992H65.632V194.456H68.864V191.144H70.56V194.456H73.792V195.992Z" fill="#FF6700"/>
<path d="M89.792 195.992H86.56V199.304H84.864V195.992H81.632V194.456H84.864V191.144H86.56V194.456H89.792V195.992Z" fill="#FF6700"/>
<path d="M105.792 195.992H102.56V199.304H100.864V195.992H97.632V194.456H100.864V191.144H102.56V194.456H105.792V195.992Z" fill="#FF6700"/>
<path d="M9.792 223.992H6.56V227.304H4.864V223.992H1.632V222.456H4.864V219.144H6.56V222.456H9.792V223.992Z" fill="#FF6700"/>
<path d="M25.792 223.992H22.56V227.304H20.864V223.992H17.632V222.456H20.864V219.144H22.56V222.456H25.792V223.992Z" fill="#FF6700"/>
<path d="M41.792 223.992H38.56V227.304H36.864V223.992H33.632V222.456H36.864V219.144H38.56V222.456H41.792V223.992Z" fill="#FF6700"/>
<path d="M57.792 223.992H54.56V227.304H52.864V223.992H49.632V222.456H52.864V219.144H54.56V222.456H57.792V223.992Z" fill="#FF6700"/>
<path d="M73.792 223.992H70.56V227.304H68.864V223.992H65.632V222.456H68.864V219.144H70.56V222.456H73.792V223.992Z" fill="#FF6700"/>
<path d="M89.792 223.992H86.56V227.304H84.864V223.992H81.632V222.456H84.864V219.144H86.56V222.456H89.792V223.992Z" fill="#FF6700"/>
<path d="M105.792 223.992H102.56V227.304H100.864V223.992H97.632V222.456H100.864V219.144H102.56V222.456H105.792V223.992Z" fill="#FF6700"/>
<path d="M9.792 251.992H6.56V255.304H4.864V251.992H1.632V250.456H4.864V247.144H6.56V250.456H9.792V251.992Z" fill="#FF6700"/>
<path d="M25.792 251.992H22.56V255.304H20.864V251.992H17.632V250.456H20.864V247.144H22.56V250.456H25.792V251.992Z" fill="#FF6700"/>
<path d="M41.792 251.992H38.56V255.304H36.864V251.992H33.632V250.456H36.864V247.144H38.56V250.456H41.792V251.992Z" fill="#FF6700"/>
<path d="M57.792 251.992H54.56V255.304H52.864V251.992H49.632V250.456H52.864V247.144H54.56V250.456H57.792V251.992Z" fill="#FF6700"/>
<path d="M73.792 251.992H70.56V255.304H68.864V251.992H65.632V250.456H68.864V247.144H70.56V250.456H73.792V251.992Z" fill="#FF6700"/>
<path d="M89.792 251.992H86.56V255.304H84.864V251.992H81.632V250.456H84.864V247.144H86.56V250.456H89.792V251.992Z" fill="#FF6700"/>
<path d="M105.792 251.992H102.56V255.304H100.864V251.992H97.632V250.456H100.864V247.144H102.56V250.456H105.792V251.992Z" fill="#FF6700"/>
<path d="M0 77C0 74.2386 2.23858 72 5 72H577C579.761 72 582 74.2386 582 77V490C582 492.761 579.761 495 577 495H4.99999C2.23857 495 0 492.761 0 490V77Z" fill="#FF6700" fill-opacity="0.25"/>
</svg>
