<svg width="1280" height="568" viewBox="0 0 1280 568" fill="none" xmlns="http://www.w3.org/2000/svg">
<path d="M0 443.356C83.4311 412.929 162.194 343.37 249.13 339.801C311.552 337.239 364.184 403.067 415.091 456.779C438.328 481.298 472.678 528.205 502.818 520.063C548.883 507.619 576.638 399.949 595.862 342.997C622.581 263.846 641.912 189.531 680.552 126.3C710.215 77.7586 748.735 46.8296 789.926 41.283C839.667 34.5852 884.777 42.297 931.961 68.7697C984.78 98.4047 1049.97 122.707 1096.02 176.16C1107.92 189.971 1122.41 203.371 1131.72 222.184C1147.42 253.888 1194.54 255.285 1217.17 272.043C1257.03 301.562 1294.89 342.249 1333 374.319" stroke="#3D4B5C" stroke-opacity="0.1" stroke-width="6" stroke-linecap="round"/>
<circle cx="1222" cy="552" r="16" fill="#FF6700" fill-opacity="0.25"/>
<circle cx="985" cy="257" r="16" fill="#2AAA8A" fill-opacity="0.25"/>
<circle cx="118" cy="273" r="16" fill="#0D578D" fill-opacity="0.25"/>
<circle cx="333" cy="16" r="16" fill="#2AAA8A" fill-opacity="0.25"/>
</svg>
