<svg width="151" height="38" viewBox="0 0 151 38" fill="none" xmlns="http://www.w3.org/2000/svg">
<path d="M21.44 12.536V35H15.968V25.752H7.456V35H1.984V12.536H7.456V21.336H15.968V12.536H21.44Z" fill="#2AAA8A"/>
<path d="M50.8303 12.536V35H45.3583V21.528L40.3343 35H35.9183L30.8623 21.496V35H25.3903V12.536H31.8542L38.1583 28.088L44.3983 12.536H50.8303Z" fill="#0D578D"/>
<path d="M55.192 29.44V30.184H53.712V35H52.8V30.184H51.312V29.44H55.192ZM57.0276 30.176V31.808H58.9476V32.552H57.0276V34.256H59.1876V35H56.1156V29.432H59.1876V30.176H57.0276ZM60.0069 32.208C60.0069 31.664 60.1323 31.176 60.3829 30.744C60.6389 30.312 60.9829 29.976 61.4149 29.736C61.8523 29.4907 62.3296 29.368 62.8469 29.368C63.4389 29.368 63.9643 29.5147 64.4229 29.808C64.8869 30.096 65.2229 30.5067 65.4309 31.04H64.3349C64.1909 30.7467 63.9909 30.528 63.7349 30.384C63.4789 30.24 63.1829 30.168 62.8469 30.168C62.4789 30.168 62.1509 30.2507 61.8629 30.416C61.5749 30.5813 61.3483 30.8187 61.1829 31.128C61.0229 31.4373 60.9429 31.7973 60.9429 32.208C60.9429 32.6187 61.0229 32.9787 61.1829 33.288C61.3483 33.5973 61.5749 33.8373 61.8629 34.008C62.1509 34.1733 62.4789 34.256 62.8469 34.256C63.1829 34.256 63.4789 34.184 63.7349 34.04C63.9909 33.896 64.1909 33.6773 64.3349 33.384H65.4309C65.2229 33.9173 64.8869 34.328 64.4229 34.616C63.9643 34.904 63.4389 35.048 62.8469 35.048C62.3243 35.048 61.8469 34.928 61.4149 34.688C60.9829 34.4427 60.6389 34.104 60.3829 33.672C60.1323 33.24 60.0069 32.752 60.0069 32.208ZM70.9384 29.44V35H70.0264V32.568H67.4104V35H66.4984V29.44H67.4104V31.824H70.0264V29.44H70.9384ZM76.7071 35H75.7951L73.0511 30.848V35H72.1391V29.432H73.0511L75.7951 33.576V29.432H76.7071V35ZM80.4407 35.056C79.9234 35.056 79.446 34.936 79.0087 34.696C78.5767 34.4507 78.2327 34.112 77.9767 33.68C77.726 33.2427 77.6007 32.752 77.6007 32.208C77.6007 31.664 77.726 31.176 77.9767 30.744C78.2327 30.312 78.5767 29.976 79.0087 29.736C79.446 29.4907 79.9234 29.368 80.4407 29.368C80.9634 29.368 81.4407 29.4907 81.8727 29.736C82.31 29.976 82.654 30.312 82.9047 30.744C83.1554 31.176 83.2807 31.664 83.2807 32.208C83.2807 32.752 83.1554 33.2427 82.9047 33.68C82.654 34.112 82.31 34.4507 81.8727 34.696C81.4407 34.936 80.9634 35.056 80.4407 35.056ZM80.4407 34.264C80.8087 34.264 81.1367 34.1813 81.4247 34.016C81.7127 33.8453 81.9367 33.6053 82.0967 33.296C82.262 32.9813 82.3447 32.6187 82.3447 32.208C82.3447 31.7973 82.262 31.4373 82.0967 31.128C81.9367 30.8187 81.7127 30.5813 81.4247 30.416C81.1367 30.2507 80.8087 30.168 80.4407 30.168C80.0727 30.168 79.7447 30.2507 79.4567 30.416C79.1687 30.5813 78.942 30.8187 78.7767 31.128C78.6167 31.4373 78.5367 31.7973 78.5367 32.208C78.5367 32.6187 78.6167 32.9813 78.7767 33.296C78.942 33.6053 79.1687 33.8453 79.4567 34.016C79.7447 34.1813 80.0727 34.264 80.4407 34.264ZM85.0901 34.264H86.9701V35H84.1781V29.44H85.0901V34.264ZM90.2688 35.056C89.7515 35.056 89.2741 34.936 88.8368 34.696C88.4048 34.4507 88.0608 34.112 87.8048 33.68C87.5541 33.2427 87.4288 32.752 87.4288 32.208C87.4288 31.664 87.5541 31.176 87.8048 30.744C88.0608 30.312 88.4048 29.976 88.8368 29.736C89.2741 29.4907 89.7515 29.368 90.2688 29.368C90.7915 29.368 91.2688 29.4907 91.7008 29.736C92.1381 29.976 92.4821 30.312 92.7328 30.744C92.9835 31.176 93.1088 31.664 93.1088 32.208C93.1088 32.752 92.9835 33.2427 92.7328 33.68C92.4821 34.112 92.1381 34.4507 91.7008 34.696C91.2688 34.936 90.7915 35.056 90.2688 35.056ZM90.2688 34.264C90.6368 34.264 90.9648 34.1813 91.2528 34.016C91.5408 33.8453 91.7648 33.6053 91.9248 33.296C92.0901 32.9813 92.1728 32.6187 92.1728 32.208C92.1728 31.7973 92.0901 31.4373 91.9248 31.128C91.7648 30.8187 91.5408 30.5813 91.2528 30.416C90.9648 30.2507 90.6368 30.168 90.2688 30.168C89.9008 30.168 89.5728 30.2507 89.2848 30.416C88.9968 30.5813 88.7701 30.8187 88.6048 31.128C88.4448 31.4373 88.3648 31.7973 88.3648 32.208C88.3648 32.6187 88.4448 32.9813 88.6048 33.296C88.7701 33.6053 88.9968 33.8453 89.2848 34.016C89.5728 34.1813 89.9008 34.264 90.2688 34.264ZM98.0303 31.04C97.8863 30.7627 97.6863 30.5547 97.4303 30.416C97.1743 30.272 96.8783 30.2 96.5423 30.2C96.1743 30.2 95.8463 30.2827 95.5583 30.448C95.2703 30.6133 95.0436 30.848 94.8783 31.152C94.7183 31.456 94.6383 31.808 94.6383 32.208C94.6383 32.608 94.7183 32.9627 94.8783 33.272C95.0436 33.576 95.2703 33.8107 95.5583 33.976C95.8463 34.1413 96.1743 34.224 96.5423 34.224C97.0383 34.224 97.4409 34.0853 97.7503 33.808C98.0596 33.5307 98.2489 33.1547 98.3183 32.68H96.2303V31.952H99.2943V32.664C99.2356 33.096 99.0809 33.4933 98.8303 33.856C98.5849 34.2187 98.2623 34.5093 97.8623 34.728C97.4676 34.9413 97.0276 35.048 96.5423 35.048C96.0196 35.048 95.5423 34.928 95.1103 34.688C94.6783 34.4427 94.3343 34.104 94.0783 33.672C93.8276 33.24 93.7023 32.752 93.7023 32.208C93.7023 31.664 93.8276 31.176 94.0783 30.744C94.3343 30.312 94.6783 29.976 95.1103 29.736C95.5476 29.4907 96.0249 29.368 96.5423 29.368C97.1343 29.368 97.6596 29.5147 98.1183 29.808C98.5823 30.096 98.9183 30.5067 99.1263 31.04H98.0303ZM104.314 29.44L102.474 32.984V35H101.562V32.984L99.7138 29.44H100.73L102.018 32.168L103.306 29.44H104.314ZM108.948 35.056C108.574 35.056 108.238 34.992 107.94 34.864C107.641 34.7307 107.406 34.544 107.236 34.304C107.065 34.064 106.98 33.784 106.98 33.464H107.956C107.977 33.704 108.07 33.9013 108.236 34.056C108.406 34.2107 108.644 34.288 108.948 34.288C109.262 34.288 109.508 34.2133 109.684 34.064C109.86 33.9093 109.948 33.712 109.948 33.472C109.948 33.2853 109.892 33.1333 109.78 33.016C109.673 32.8987 109.537 32.808 109.372 32.744C109.212 32.68 108.988 32.6107 108.7 32.536C108.337 32.44 108.041 32.344 107.812 32.248C107.588 32.1467 107.396 31.992 107.236 31.784C107.076 31.576 106.996 31.2987 106.996 30.952C106.996 30.632 107.076 30.352 107.236 30.112C107.396 29.872 107.62 29.688 107.908 29.56C108.196 29.432 108.529 29.368 108.908 29.368C109.446 29.368 109.886 29.504 110.228 29.776C110.574 30.0427 110.766 30.4107 110.804 30.88H109.796C109.78 30.6773 109.684 30.504 109.508 30.36C109.332 30.216 109.1 30.144 108.812 30.144C108.55 30.144 108.337 30.2107 108.172 30.344C108.006 30.4773 107.924 30.6693 107.924 30.92C107.924 31.0907 107.974 31.232 108.076 31.344C108.182 31.4507 108.316 31.536 108.476 31.6C108.636 31.664 108.854 31.7333 109.132 31.808C109.5 31.9093 109.798 32.0107 110.028 32.112C110.262 32.2133 110.46 32.3707 110.62 32.584C110.785 32.792 110.868 33.072 110.868 33.424C110.868 33.7067 110.79 33.9733 110.636 34.224C110.486 34.4747 110.265 34.6773 109.972 34.832C109.684 34.9813 109.342 35.056 108.948 35.056ZM114.48 35.056C113.962 35.056 113.485 34.936 113.048 34.696C112.616 34.4507 112.272 34.112 112.016 33.68C111.765 33.2427 111.64 32.752 111.64 32.208C111.64 31.664 111.765 31.176 112.016 30.744C112.272 30.312 112.616 29.976 113.048 29.736C113.485 29.4907 113.962 29.368 114.48 29.368C115.002 29.368 115.48 29.4907 115.912 29.736C116.349 29.976 116.693 30.312 116.944 30.744C117.194 31.176 117.32 31.664 117.32 32.208C117.32 32.752 117.194 33.2427 116.944 33.68C116.693 34.112 116.349 34.4507 115.912 34.696C115.48 34.936 115.002 35.056 114.48 35.056ZM114.48 34.264C114.848 34.264 115.176 34.1813 115.464 34.016C115.752 33.8453 115.976 33.6053 116.136 33.296C116.301 32.9813 116.384 32.6187 116.384 32.208C116.384 31.7973 116.301 31.4373 116.136 31.128C115.976 30.8187 115.752 30.5813 115.464 30.416C115.176 30.2507 114.848 30.168 114.48 30.168C114.112 30.168 113.784 30.2507 113.496 30.416C113.208 30.5813 112.981 30.8187 112.816 31.128C112.656 31.4373 112.576 31.7973 112.576 32.208C112.576 32.6187 112.656 32.9813 112.816 33.296C112.981 33.6053 113.208 33.8453 113.496 34.016C113.784 34.1813 114.112 34.264 114.48 34.264ZM119.129 34.264H121.009V35H118.217V29.44H119.129V34.264ZM122.676 29.44V32.984C122.676 33.4053 122.785 33.7227 123.004 33.936C123.228 34.1493 123.537 34.256 123.932 34.256C124.332 34.256 124.641 34.1493 124.86 33.936C125.084 33.7227 125.196 33.4053 125.196 32.984V29.44H126.108V32.968C126.108 33.4213 126.009 33.8053 125.812 34.12C125.615 34.4347 125.351 34.6693 125.02 34.824C124.689 34.9787 124.324 35.056 123.924 35.056C123.524 35.056 123.159 34.9787 122.828 34.824C122.503 34.6693 122.244 34.4347 122.052 34.12C121.86 33.8053 121.764 33.4213 121.764 32.968V29.44H122.676ZM130.887 29.44V30.184H129.407V35H128.495V30.184H127.007V29.44H130.887ZM132.723 29.44V35H131.811V29.44H132.723ZM136.456 35.056C135.939 35.056 135.462 34.936 135.024 34.696C134.592 34.4507 134.248 34.112 133.992 33.68C133.742 33.2427 133.616 32.752 133.616 32.208C133.616 31.664 133.742 31.176 133.992 30.744C134.248 30.312 134.592 29.976 135.024 29.736C135.462 29.4907 135.939 29.368 136.456 29.368C136.979 29.368 137.456 29.4907 137.888 29.736C138.326 29.976 138.67 30.312 138.92 30.744C139.171 31.176 139.296 31.664 139.296 32.208C139.296 32.752 139.171 33.2427 138.92 33.68C138.67 34.112 138.326 34.4507 137.888 34.696C137.456 34.936 136.979 35.056 136.456 35.056ZM136.456 34.264C136.824 34.264 137.152 34.1813 137.44 34.016C137.728 33.8453 137.952 33.6053 138.112 33.296C138.278 32.9813 138.36 32.6187 138.36 32.208C138.36 31.7973 138.278 31.4373 138.112 31.128C137.952 30.8187 137.728 30.5813 137.44 30.416C137.152 30.2507 136.824 30.168 136.456 30.168C136.088 30.168 135.76 30.2507 135.472 30.416C135.184 30.5813 134.958 30.8187 134.792 31.128C134.632 31.4373 134.552 31.7973 134.552 32.208C134.552 32.6187 134.632 32.9813 134.792 33.296C134.958 33.6053 135.184 33.8453 135.472 34.016C135.76 34.1813 136.088 34.264 136.456 34.264ZM144.762 35H143.85L141.106 30.848V35H140.194V29.432H141.106L143.85 33.576V29.432H144.762V35ZM147.791 35.056C147.418 35.056 147.082 34.992 146.783 34.864C146.485 34.7307 146.25 34.544 146.079 34.304C145.909 34.064 145.823 33.784 145.823 33.464H146.799C146.821 33.704 146.914 33.9013 147.079 34.056C147.25 34.2107 147.487 34.288 147.791 34.288C148.106 34.288 148.351 34.2133 148.527 34.064C148.703 33.9093 148.791 33.712 148.791 33.472C148.791 33.2853 148.735 33.1333 148.623 33.016C148.517 32.8987 148.381 32.808 148.215 32.744C148.055 32.68 147.831 32.6107 147.543 32.536C147.181 32.44 146.885 32.344 146.655 32.248C146.431 32.1467 146.239 31.992 146.079 31.784C145.919 31.576 145.839 31.2987 145.839 30.952C145.839 30.632 145.919 30.352 146.079 30.112C146.239 29.872 146.463 29.688 146.751 29.56C147.039 29.432 147.373 29.368 147.751 29.368C148.29 29.368 148.73 29.504 149.071 29.776C149.418 30.0427 149.61 30.4107 149.647 30.88H148.639C148.623 30.6773 148.527 30.504 148.351 30.36C148.175 30.216 147.943 30.144 147.655 30.144C147.394 30.144 147.181 30.2107 147.015 30.344C146.85 30.4773 146.767 30.6693 146.767 30.92C146.767 31.0907 146.818 31.232 146.919 31.344C147.026 31.4507 147.159 31.536 147.319 31.6C147.479 31.664 147.698 31.7333 147.975 31.808C148.343 31.9093 148.642 32.0107 148.871 32.112C149.106 32.2133 149.303 32.3707 149.463 32.584C149.629 32.792 149.711 33.072 149.711 33.424C149.711 33.7067 149.634 33.9733 149.479 34.224C149.33 34.4747 149.109 34.6773 148.815 34.832C148.527 34.9813 148.186 35.056 147.791 35.056Z" fill="#0D578D"/>
<path d="M61.08 12.88V24H59.256V19.136H54.024V24H52.2V12.88H54.024V17.648H59.256V12.88H61.08ZM71.7213 12.88L68.0413 19.968V24H66.2173V19.968L62.5213 12.88H64.5533L67.1293 18.336L69.7053 12.88H71.7213ZM80.9448 16.192C80.9448 16.7573 80.8114 17.2907 80.5448 17.792C80.2781 18.2933 79.8514 18.704 79.2648 19.024C78.6781 19.3333 77.9261 19.488 77.0088 19.488H74.9928V24H73.1688V12.88H77.0088C77.8621 12.88 78.5821 13.0293 79.1688 13.328C79.7661 13.616 80.2088 14.0107 80.4968 14.512C80.7954 15.0133 80.9448 15.5733 80.9448 16.192ZM77.0088 18C77.7021 18 78.2194 17.8453 78.5608 17.536C78.9021 17.216 79.0728 16.768 79.0728 16.192C79.0728 14.976 78.3848 14.368 77.0088 14.368H74.9928V18H77.0088ZM84.5084 14.352V17.616H88.3484V19.104H84.5084V22.512H88.8284V24H82.6844V12.864H88.8284V14.352H84.5084ZM96.851 24L94.291 19.552H92.899V24H91.075V12.88H94.915C95.7683 12.88 96.4883 13.0293 97.075 13.328C97.6723 13.6267 98.115 14.0267 98.403 14.528C98.7017 15.0293 98.851 15.5893 98.851 16.208C98.851 16.9333 98.6377 17.5947 98.211 18.192C97.795 18.7787 97.1497 19.1787 96.275 19.392L99.027 24H96.851ZM92.899 18.096H94.915C95.5977 18.096 96.1097 17.9253 96.451 17.584C96.803 17.2427 96.979 16.784 96.979 16.208C96.979 15.632 96.8083 15.184 96.467 14.864C96.1257 14.5333 95.6083 14.368 94.915 14.368H92.899V18.096ZM112.896 12.88V24H111.072V16.384L107.68 24H106.416L103.008 16.384V24H101.184V12.88H103.152L107.056 21.6L110.944 12.88H112.896ZM121.998 21.728H117.342L116.542 24H114.638L118.622 12.864H120.734L124.718 24H122.798L121.998 21.728ZM121.486 20.24L119.678 15.072L117.854 20.24H121.486ZM131.554 18.448L135.01 24H132.962L130.45 19.968L128.098 24H126.066L129.522 18.448L126.05 12.88H128.098L130.626 16.944L132.994 12.88H135.026L131.554 18.448Z" fill="#0D578D"/>
</svg>
