<svg width="911" height="613" viewBox="0 0 911 613" fill="none" xmlns="http://www.w3.org/2000/svg">
<path d="M2055.5 649.5C2055.5 1021.63 1670.49 1323.5 1195.3 1323.5C720.101 1323.5 335.095 1021.63 335.095 649.5C335.095 277.367 720.101 -24.5 1195.3 -24.5C1670.49 -24.5 2055.5 277.367 2055.5 649.5Z" stroke="#0D578D" stroke-opacity="0.25"/>
<path d="M2024.68 649.5C2024.68 1021.63 1639.68 1323.5 1164.48 1323.5C689.283 1323.5 304.277 1021.63 304.277 649.5C304.277 277.367 689.283 -24.5 1164.48 -24.5C1639.68 -24.5 2024.68 277.367 2024.68 649.5Z" stroke="#0D578D" stroke-opacity="0.25"/>
<path d="M1985.06 649.5C1985.06 1021.63 1600.05 1323.5 1124.86 1323.5C649.66 1323.5 264.654 1021.63 264.654 649.5C264.654 277.367 649.66 -24.5 1124.86 -24.5C1600.05 -24.5 1985.06 277.367 1985.06 649.5Z" stroke="#0D578D" stroke-opacity="0.25"/>
<path d="M1945.44 649.5C1945.44 1021.63 1560.43 1323.5 1085.23 1323.5C610.036 1323.5 225.031 1021.63 225.031 649.5C225.031 277.367 610.036 -24.5 1085.23 -24.5C1560.43 -24.5 1945.44 277.367 1945.44 649.5Z" stroke="#0D578D" stroke-opacity="0.25"/>
<path d="M1892.61 649.5C1892.61 1021.63 1507.6 1323.5 1032.4 1323.5C557.206 1323.5 172.2 1021.63 172.2 649.5C172.2 277.367 557.206 -24.5 1032.4 -24.5C1507.6 -24.5 1892.61 277.367 1892.61 649.5Z" stroke="#0D578D" stroke-opacity="0.25"/>
<path d="M1861.79 649.5C1861.79 1021.63 1476.78 1323.5 1001.58 1323.5C526.387 1323.5 141.382 1021.63 141.382 649.5C141.382 277.367 526.387 -24.5 1001.58 -24.5C1476.78 -24.5 1861.79 277.367 1861.79 649.5Z" stroke="#0D578D" stroke-opacity="0.25"/>
<path d="M1822.16 649.5C1822.16 1021.63 1437.16 1323.5 961.962 1323.5C486.764 1323.5 101.759 1021.63 101.759 649.5C101.759 277.367 486.764 -24.5 961.962 -24.5C1437.16 -24.5 1822.16 277.367 1822.16 649.5Z" stroke="#0D578D" stroke-opacity="0.25"/>
<path d="M1791.35 649.5C1791.35 1021.63 1406.34 1323.5 931.144 1323.5C455.947 1323.5 70.9412 1021.63 70.9412 649.5C70.9412 277.367 455.947 -24.5 931.144 -24.5C1406.34 -24.5 1791.35 277.367 1791.35 649.5Z" stroke="#0D578D" stroke-opacity="0.25"/>
<path d="M1760.53 649.5C1760.53 1021.63 1375.52 1323.5 900.325 1323.5C425.128 1323.5 40.1231 1021.63 40.1231 649.5C40.1231 277.367 425.128 -24.5 900.325 -24.5C1375.52 -24.5 1760.53 277.367 1760.53 649.5Z" stroke="#0D578D" stroke-opacity="0.25"/>
<path d="M1720.9 649.5C1720.9 1021.63 1335.9 1323.5 860.702 1323.5C385.505 1323.5 0.5 1021.63 0.5 649.5C0.5 277.367 385.505 -24.5 860.702 -24.5C1335.9 -24.5 1720.9 277.367 1720.9 649.5Z" stroke="#0D578D" stroke-opacity="0.25"/>
</svg>
