<svg width="1280" height="771" viewBox="0 0 1280 771" fill="none" xmlns="http://www.w3.org/2000/svg">
<path d="M101.5 305C101.5 413.528 14.1919 501.5 -93.5 501.5C-201.192 501.5 -288.5 413.528 -288.5 305C-288.5 196.472 -201.192 108.5 -93.5 108.5C14.1919 108.5 101.5 196.472 101.5 305Z" stroke="#2AAA8A" stroke-opacity="0.25"/>
<path d="M94.5 305C94.5 413.528 7.19193 501.5 -100.5 501.5C-208.192 501.5 -295.5 413.528 -295.5 305C-295.5 196.472 -208.192 108.5 -100.5 108.5C7.19193 108.5 94.5 196.472 94.5 305Z" stroke="#2AAA8A" stroke-opacity="0.25"/>
<path d="M85.5 305C85.5 413.528 -1.80807 501.5 -109.5 501.5C-217.192 501.5 -304.5 413.528 -304.5 305C-304.5 196.472 -217.192 108.5 -109.5 108.5C-1.80807 108.5 85.5 196.472 85.5 305Z" stroke="#2AAA8A" stroke-opacity="0.25"/>
<path d="M76.5 305C76.5 413.528 -10.8081 501.5 -118.5 501.5C-226.192 501.5 -313.5 413.528 -313.5 305C-313.5 196.472 -226.192 108.5 -118.5 108.5C-10.8081 108.5 76.5 196.472 76.5 305Z" stroke="#2AAA8A" stroke-opacity="0.25"/>
<path d="M64.5 305C64.5 413.528 -22.8081 501.5 -130.5 501.5C-238.192 501.5 -325.5 413.528 -325.5 305C-325.5 196.472 -238.192 108.5 -130.5 108.5C-22.8081 108.5 64.5 196.472 64.5 305Z" stroke="#2AAA8A" stroke-opacity="0.25"/>
<path d="M57.5 305C57.5 413.528 -29.8081 501.5 -137.5 501.5C-245.192 501.5 -332.5 413.528 -332.5 305C-332.5 196.472 -245.192 108.5 -137.5 108.5C-29.8081 108.5 57.5 196.472 57.5 305Z" stroke="#2AAA8A" stroke-opacity="0.25"/>
<path d="M48.5 305C48.5 413.528 -38.8081 501.5 -146.5 501.5C-254.192 501.5 -341.5 413.528 -341.5 305C-341.5 196.472 -254.192 108.5 -146.5 108.5C-38.8081 108.5 48.5 196.472 48.5 305Z" stroke="#2AAA8A" stroke-opacity="0.25"/>
<path d="M41.5 305C41.5 413.528 -45.8081 501.5 -153.5 501.5C-261.192 501.5 -348.5 413.528 -348.5 305C-348.5 196.472 -261.192 108.5 -153.5 108.5C-45.8081 108.5 41.5 196.472 41.5 305Z" stroke="#2AAA8A" stroke-opacity="0.25"/>
<path d="M34.5 305C34.5 413.528 -52.8081 501.5 -160.5 501.5C-268.192 501.5 -355.5 413.528 -355.5 305C-355.5 196.472 -268.192 108.5 -160.5 108.5C-52.8081 108.5 34.5 196.472 34.5 305Z" stroke="#2AAA8A" stroke-opacity="0.25"/>
<path d="M25.5 305C25.5 413.528 -61.8081 501.5 -169.5 501.5C-277.192 501.5 -364.5 413.528 -364.5 305C-364.5 196.472 -277.192 108.5 -169.5 108.5C-61.8081 108.5 25.5 196.472 25.5 305Z" stroke="#2AAA8A" stroke-opacity="0.25"/>
<path d="M649.792 679.992H646.56V683.304H644.864V679.992H641.632V678.456H644.864V675.144H646.56V678.456H649.792V679.992Z" fill="#121113"/>
<path d="M665.792 679.992H662.56V683.304H660.864V679.992H657.632V678.456H660.864V675.144H662.56V678.456H665.792V679.992Z" fill="#121113"/>
<path d="M681.792 679.992H678.56V683.304H676.864V679.992H673.632V678.456H676.864V675.144H678.56V678.456H681.792V679.992Z" fill="#121113"/>
<path d="M697.792 679.992H694.56V683.304H692.864V679.992H689.632V678.456H692.864V675.144H694.56V678.456H697.792V679.992Z" fill="#121113"/>
<path d="M713.792 679.992H710.56V683.304H708.864V679.992H705.632V678.456H708.864V675.144H710.56V678.456H713.792V679.992Z" fill="#121113"/>
<path d="M729.792 679.992H726.56V683.304H724.864V679.992H721.632V678.456H724.864V675.144H726.56V678.456H729.792V679.992Z" fill="#121113"/>
<path d="M745.792 679.992H742.56V683.304H740.864V679.992H737.632V678.456H740.864V675.144H742.56V678.456H745.792V679.992Z" fill="#121113"/>
<path d="M761.792 679.992H758.56V683.304H756.864V679.992H753.632V678.456H756.864V675.144H758.56V678.456H761.792V679.992Z" fill="#121113"/>
<path d="M649.792 707.992H646.56V711.304H644.864V707.992H641.632V706.456H644.864V703.144H646.56V706.456H649.792V707.992Z" fill="#121113"/>
<path d="M665.792 707.992H662.56V711.304H660.864V707.992H657.632V706.456H660.864V703.144H662.56V706.456H665.792V707.992Z" fill="#121113"/>
<path d="M681.792 707.992H678.56V711.304H676.864V707.992H673.632V706.456H676.864V703.144H678.56V706.456H681.792V707.992Z" fill="#121113"/>
<path d="M697.792 707.992H694.56V711.304H692.864V707.992H689.632V706.456H692.864V703.144H694.56V706.456H697.792V707.992Z" fill="#121113"/>
<path d="M713.792 707.992H710.56V711.304H708.864V707.992H705.632V706.456H708.864V703.144H710.56V706.456H713.792V707.992Z" fill="#121113"/>
<path d="M729.792 707.992H726.56V711.304H724.864V707.992H721.632V706.456H724.864V703.144H726.56V706.456H729.792V707.992Z" fill="#121113"/>
<path d="M745.792 707.992H742.56V711.304H740.864V707.992H737.632V706.456H740.864V703.144H742.56V706.456H745.792V707.992Z" fill="#121113"/>
<path d="M761.792 707.992H758.56V711.304H756.864V707.992H753.632V706.456H756.864V703.144H758.56V706.456H761.792V707.992Z" fill="#121113"/>
<path d="M649.792 735.992H646.56V739.304H644.864V735.992H641.632V734.456H644.864V731.144H646.56V734.456H649.792V735.992Z" fill="#121113"/>
<path d="M665.792 735.992H662.56V739.304H660.864V735.992H657.632V734.456H660.864V731.144H662.56V734.456H665.792V735.992Z" fill="#121113"/>
<path d="M681.792 735.992H678.56V739.304H676.864V735.992H673.632V734.456H676.864V731.144H678.56V734.456H681.792V735.992Z" fill="#121113"/>
<path d="M697.792 735.992H694.56V739.304H692.864V735.992H689.632V734.456H692.864V731.144H694.56V734.456H697.792V735.992Z" fill="#121113"/>
<path d="M713.792 735.992H710.56V739.304H708.864V735.992H705.632V734.456H708.864V731.144H710.56V734.456H713.792V735.992Z" fill="#121113"/>
<path d="M729.792 735.992H726.56V739.304H724.864V735.992H721.632V734.456H724.864V731.144H726.56V734.456H729.792V735.992Z" fill="#121113"/>
<path d="M745.792 735.992H742.56V739.304H740.864V735.992H737.632V734.456H740.864V731.144H742.56V734.456H745.792V735.992Z" fill="#121113"/>
<path d="M761.792 735.992H758.56V739.304H756.864V735.992H753.632V734.456H756.864V731.144H758.56V734.456H761.792V735.992Z" fill="#121113"/>
<path d="M649.792 763.992H646.56V767.304H644.864V763.992H641.632V762.456H644.864V759.144H646.56V762.456H649.792V763.992Z" fill="#121113"/>
<path d="M665.792 763.992H662.56V767.304H660.864V763.992H657.632V762.456H660.864V759.144H662.56V762.456H665.792V763.992Z" fill="#121113"/>
<path d="M681.792 763.992H678.56V767.304H676.864V763.992H673.632V762.456H676.864V759.144H678.56V762.456H681.792V763.992Z" fill="#121113"/>
<path d="M697.792 763.992H694.56V767.304H692.864V763.992H689.632V762.456H692.864V759.144H694.56V762.456H697.792V763.992Z" fill="#121113"/>
<path d="M713.792 763.992H710.56V767.304H708.864V763.992H705.632V762.456H708.864V759.144H710.56V762.456H713.792V763.992Z" fill="#121113"/>
<path d="M729.792 763.992H726.56V767.304H724.864V763.992H721.632V762.456H724.864V759.144H726.56V762.456H729.792V763.992Z" fill="#121113"/>
<path d="M745.792 763.992H742.56V767.304H740.864V763.992H737.632V762.456H740.864V759.144H742.56V762.456H745.792V763.992Z" fill="#121113"/>
<path d="M761.792 763.992H758.56V767.304H756.864V763.992H753.632V762.456H756.864V759.144H758.56V762.456H761.792V763.992Z" fill="#121113"/>
<rect x="1428.23" y="-76" width="98" height="814.188" rx="49" transform="rotate(60 1428.23 -76)" fill="#0D578D" fill-opacity="0.25"/>
<rect x="1314.23" y="215.627" width="98" height="778.537" rx="49" transform="rotate(60 1314.23 215.627)" fill="#121113" fill-opacity="0.25"/>
<rect x="1636.56" y="-83" width="98" height="1125.67" rx="49" transform="rotate(60 1636.56 -83)" fill="#2AAA8A" fill-opacity="0.25"/>
</svg>
