<svg width="151" height="32" viewBox="0 0 151 32" fill="none" xmlns="http://www.w3.org/2000/svg">
<path d="M21.44 6.536V29H15.968V19.752H7.456V29H1.984V6.536H7.456V15.336H15.968V6.536H21.44Z" fill="#2AAA8A"/>
<path d="M50.8303 6.536V29H45.3583V15.528L40.3343 29H35.9183L30.8623 15.496V29H25.3903V6.536H31.8542L38.1583 22.088L44.3983 6.536H50.8303Z" fill="#121113"/>
<path d="M55.192 23.44V24.184H53.712V29H52.8V24.184H51.312V23.44H55.192ZM57.0276 24.176V25.808H58.9476V26.552H57.0276V28.256H59.1876V29H56.1156V23.432H59.1876V24.176H57.0276ZM60.0069 26.208C60.0069 25.664 60.1323 25.176 60.3829 24.744C60.6389 24.312 60.9829 23.976 61.4149 23.736C61.8523 23.4907 62.3296 23.368 62.8469 23.368C63.4389 23.368 63.9643 23.5147 64.4229 23.808C64.8869 24.096 65.2229 24.5067 65.4309 25.04H64.3349C64.1909 24.7467 63.9909 24.528 63.7349 24.384C63.4789 24.24 63.1829 24.168 62.8469 24.168C62.4789 24.168 62.1509 24.2507 61.8629 24.416C61.5749 24.5813 61.3483 24.8187 61.1829 25.128C61.0229 25.4373 60.9429 25.7973 60.9429 26.208C60.9429 26.6187 61.0229 26.9787 61.1829 27.288C61.3483 27.5973 61.5749 27.8373 61.8629 28.008C62.1509 28.1733 62.4789 28.256 62.8469 28.256C63.1829 28.256 63.4789 28.184 63.7349 28.04C63.9909 27.896 64.1909 27.6773 64.3349 27.384H65.4309C65.2229 27.9173 64.8869 28.328 64.4229 28.616C63.9643 28.904 63.4389 29.048 62.8469 29.048C62.3243 29.048 61.8469 28.928 61.4149 28.688C60.9829 28.4427 60.6389 28.104 60.3829 27.672C60.1323 27.24 60.0069 26.752 60.0069 26.208ZM70.9384 23.44V29H70.0264V26.568H67.4104V29H66.4984V23.44H67.4104V25.824H70.0264V23.44H70.9384ZM76.7071 29H75.7951L73.0511 24.848V29H72.1391V23.432H73.0511L75.7951 27.576V23.432H76.7071V29ZM80.4407 29.056C79.9234 29.056 79.446 28.936 79.0087 28.696C78.5767 28.4507 78.2327 28.112 77.9767 27.68C77.726 27.2427 77.6007 26.752 77.6007 26.208C77.6007 25.664 77.726 25.176 77.9767 24.744C78.2327 24.312 78.5767 23.976 79.0087 23.736C79.446 23.4907 79.9234 23.368 80.4407 23.368C80.9634 23.368 81.4407 23.4907 81.8727 23.736C82.31 23.976 82.654 24.312 82.9047 24.744C83.1554 25.176 83.2807 25.664 83.2807 26.208C83.2807 26.752 83.1554 27.2427 82.9047 27.68C82.654 28.112 82.31 28.4507 81.8727 28.696C81.4407 28.936 80.9634 29.056 80.4407 29.056ZM80.4407 28.264C80.8087 28.264 81.1367 28.1813 81.4247 28.016C81.7127 27.8453 81.9367 27.6053 82.0967 27.296C82.262 26.9813 82.3447 26.6187 82.3447 26.208C82.3447 25.7973 82.262 25.4373 82.0967 25.128C81.9367 24.8187 81.7127 24.5813 81.4247 24.416C81.1367 24.2507 80.8087 24.168 80.4407 24.168C80.0727 24.168 79.7447 24.2507 79.4567 24.416C79.1687 24.5813 78.942 24.8187 78.7767 25.128C78.6167 25.4373 78.5367 25.7973 78.5367 26.208C78.5367 26.6187 78.6167 26.9813 78.7767 27.296C78.942 27.6053 79.1687 27.8453 79.4567 28.016C79.7447 28.1813 80.0727 28.264 80.4407 28.264ZM85.0901 28.264H86.9701V29H84.1781V23.44H85.0901V28.264ZM90.2688 29.056C89.7515 29.056 89.2741 28.936 88.8368 28.696C88.4048 28.4507 88.0608 28.112 87.8048 27.68C87.5541 27.2427 87.4288 26.752 87.4288 26.208C87.4288 25.664 87.5541 25.176 87.8048 24.744C88.0608 24.312 88.4048 23.976 88.8368 23.736C89.2741 23.4907 89.7515 23.368 90.2688 23.368C90.7915 23.368 91.2688 23.4907 91.7008 23.736C92.1381 23.976 92.4821 24.312 92.7328 24.744C92.9835 25.176 93.1088 25.664 93.1088 26.208C93.1088 26.752 92.9835 27.2427 92.7328 27.68C92.4821 28.112 92.1381 28.4507 91.7008 28.696C91.2688 28.936 90.7915 29.056 90.2688 29.056ZM90.2688 28.264C90.6368 28.264 90.9648 28.1813 91.2528 28.016C91.5408 27.8453 91.7648 27.6053 91.9248 27.296C92.0901 26.9813 92.1728 26.6187 92.1728 26.208C92.1728 25.7973 92.0901 25.4373 91.9248 25.128C91.7648 24.8187 91.5408 24.5813 91.2528 24.416C90.9648 24.2507 90.6368 24.168 90.2688 24.168C89.9008 24.168 89.5728 24.2507 89.2848 24.416C88.9968 24.5813 88.7701 24.8187 88.6048 25.128C88.4448 25.4373 88.3648 25.7973 88.3648 26.208C88.3648 26.6187 88.4448 26.9813 88.6048 27.296C88.7701 27.6053 88.9968 27.8453 89.2848 28.016C89.5728 28.1813 89.9008 28.264 90.2688 28.264ZM98.0303 25.04C97.8863 24.7627 97.6863 24.5547 97.4303 24.416C97.1743 24.272 96.8783 24.2 96.5423 24.2C96.1743 24.2 95.8463 24.2827 95.5583 24.448C95.2703 24.6133 95.0436 24.848 94.8783 25.152C94.7183 25.456 94.6383 25.808 94.6383 26.208C94.6383 26.608 94.7183 26.9627 94.8783 27.272C95.0436 27.576 95.2703 27.8107 95.5583 27.976C95.8463 28.1413 96.1743 28.224 96.5423 28.224C97.0383 28.224 97.4409 28.0853 97.7503 27.808C98.0596 27.5307 98.2489 27.1547 98.3183 26.68H96.2303V25.952H99.2943V26.664C99.2356 27.096 99.0809 27.4933 98.8303 27.856C98.5849 28.2187 98.2623 28.5093 97.8623 28.728C97.4676 28.9413 97.0276 29.048 96.5423 29.048C96.0196 29.048 95.5423 28.928 95.1103 28.688C94.6783 28.4427 94.3343 28.104 94.0783 27.672C93.8276 27.24 93.7023 26.752 93.7023 26.208C93.7023 25.664 93.8276 25.176 94.0783 24.744C94.3343 24.312 94.6783 23.976 95.1103 23.736C95.5476 23.4907 96.0249 23.368 96.5423 23.368C97.1343 23.368 97.6596 23.5147 98.1183 23.808C98.5823 24.096 98.9183 24.5067 99.1263 25.04H98.0303ZM104.314 23.44L102.474 26.984V29H101.562V26.984L99.7138 23.44H100.73L102.018 26.168L103.306 23.44H104.314ZM108.948 29.056C108.574 29.056 108.238 28.992 107.94 28.864C107.641 28.7307 107.406 28.544 107.236 28.304C107.065 28.064 106.98 27.784 106.98 27.464H107.956C107.977 27.704 108.07 27.9013 108.236 28.056C108.406 28.2107 108.644 28.288 108.948 28.288C109.262 28.288 109.508 28.2133 109.684 28.064C109.86 27.9093 109.948 27.712 109.948 27.472C109.948 27.2853 109.892 27.1333 109.78 27.016C109.673 26.8987 109.537 26.808 109.372 26.744C109.212 26.68 108.988 26.6107 108.7 26.536C108.337 26.44 108.041 26.344 107.812 26.248C107.588 26.1467 107.396 25.992 107.236 25.784C107.076 25.576 106.996 25.2987 106.996 24.952C106.996 24.632 107.076 24.352 107.236 24.112C107.396 23.872 107.62 23.688 107.908 23.56C108.196 23.432 108.529 23.368 108.908 23.368C109.446 23.368 109.886 23.504 110.228 23.776C110.574 24.0427 110.766 24.4107 110.804 24.88H109.796C109.78 24.6773 109.684 24.504 109.508 24.36C109.332 24.216 109.1 24.144 108.812 24.144C108.55 24.144 108.337 24.2107 108.172 24.344C108.006 24.4773 107.924 24.6693 107.924 24.92C107.924 25.0907 107.974 25.232 108.076 25.344C108.182 25.4507 108.316 25.536 108.476 25.6C108.636 25.664 108.854 25.7333 109.132 25.808C109.5 25.9093 109.798 26.0107 110.028 26.112C110.262 26.2133 110.46 26.3707 110.62 26.584C110.785 26.792 110.868 27.072 110.868 27.424C110.868 27.7067 110.79 27.9733 110.636 28.224C110.486 28.4747 110.265 28.6773 109.972 28.832C109.684 28.9813 109.342 29.056 108.948 29.056ZM114.48 29.056C113.962 29.056 113.485 28.936 113.048 28.696C112.616 28.4507 112.272 28.112 112.016 27.68C111.765 27.2427 111.64 26.752 111.64 26.208C111.64 25.664 111.765 25.176 112.016 24.744C112.272 24.312 112.616 23.976 113.048 23.736C113.485 23.4907 113.962 23.368 114.48 23.368C115.002 23.368 115.48 23.4907 115.912 23.736C116.349 23.976 116.693 24.312 116.944 24.744C117.194 25.176 117.32 25.664 117.32 26.208C117.32 26.752 117.194 27.2427 116.944 27.68C116.693 28.112 116.349 28.4507 115.912 28.696C115.48 28.936 115.002 29.056 114.48 29.056ZM114.48 28.264C114.848 28.264 115.176 28.1813 115.464 28.016C115.752 27.8453 115.976 27.6053 116.136 27.296C116.301 26.9813 116.384 26.6187 116.384 26.208C116.384 25.7973 116.301 25.4373 116.136 25.128C115.976 24.8187 115.752 24.5813 115.464 24.416C115.176 24.2507 114.848 24.168 114.48 24.168C114.112 24.168 113.784 24.2507 113.496 24.416C113.208 24.5813 112.981 24.8187 112.816 25.128C112.656 25.4373 112.576 25.7973 112.576 26.208C112.576 26.6187 112.656 26.9813 112.816 27.296C112.981 27.6053 113.208 27.8453 113.496 28.016C113.784 28.1813 114.112 28.264 114.48 28.264ZM119.129 28.264H121.009V29H118.217V23.44H119.129V28.264ZM122.676 23.44V26.984C122.676 27.4053 122.785 27.7227 123.004 27.936C123.228 28.1493 123.537 28.256 123.932 28.256C124.332 28.256 124.641 28.1493 124.86 27.936C125.084 27.7227 125.196 27.4053 125.196 26.984V23.44H126.108V26.968C126.108 27.4213 126.009 27.8053 125.812 28.12C125.615 28.4347 125.351 28.6693 125.02 28.824C124.689 28.9787 124.324 29.056 123.924 29.056C123.524 29.056 123.159 28.9787 122.828 28.824C122.503 28.6693 122.244 28.4347 122.052 28.12C121.86 27.8053 121.764 27.4213 121.764 26.968V23.44H122.676ZM130.887 23.44V24.184H129.407V29H128.495V24.184H127.007V23.44H130.887ZM132.723 23.44V29H131.811V23.44H132.723ZM136.456 29.056C135.939 29.056 135.462 28.936 135.024 28.696C134.592 28.4507 134.248 28.112 133.992 27.68C133.742 27.2427 133.616 26.752 133.616 26.208C133.616 25.664 133.742 25.176 133.992 24.744C134.248 24.312 134.592 23.976 135.024 23.736C135.462 23.4907 135.939 23.368 136.456 23.368C136.979 23.368 137.456 23.4907 137.888 23.736C138.326 23.976 138.67 24.312 138.92 24.744C139.171 25.176 139.296 25.664 139.296 26.208C139.296 26.752 139.171 27.2427 138.92 27.68C138.67 28.112 138.326 28.4507 137.888 28.696C137.456 28.936 136.979 29.056 136.456 29.056ZM136.456 28.264C136.824 28.264 137.152 28.1813 137.44 28.016C137.728 27.8453 137.952 27.6053 138.112 27.296C138.278 26.9813 138.36 26.6187 138.36 26.208C138.36 25.7973 138.278 25.4373 138.112 25.128C137.952 24.8187 137.728 24.5813 137.44 24.416C137.152 24.2507 136.824 24.168 136.456 24.168C136.088 24.168 135.76 24.2507 135.472 24.416C135.184 24.5813 134.958 24.8187 134.792 25.128C134.632 25.4373 134.552 25.7973 134.552 26.208C134.552 26.6187 134.632 26.9813 134.792 27.296C134.958 27.6053 135.184 27.8453 135.472 28.016C135.76 28.1813 136.088 28.264 136.456 28.264ZM144.762 29H143.85L141.106 24.848V29H140.194V23.432H141.106L143.85 27.576V23.432H144.762V29ZM147.791 29.056C147.418 29.056 147.082 28.992 146.783 28.864C146.485 28.7307 146.25 28.544 146.079 28.304C145.909 28.064 145.823 27.784 145.823 27.464H146.799C146.821 27.704 146.914 27.9013 147.079 28.056C147.25 28.2107 147.487 28.288 147.791 28.288C148.106 28.288 148.351 28.2133 148.527 28.064C148.703 27.9093 148.791 27.712 148.791 27.472C148.791 27.2853 148.735 27.1333 148.623 27.016C148.517 26.8987 148.381 26.808 148.215 26.744C148.055 26.68 147.831 26.6107 147.543 26.536C147.181 26.44 146.885 26.344 146.655 26.248C146.431 26.1467 146.239 25.992 146.079 25.784C145.919 25.576 145.839 25.2987 145.839 24.952C145.839 24.632 145.919 24.352 146.079 24.112C146.239 23.872 146.463 23.688 146.751 23.56C147.039 23.432 147.373 23.368 147.751 23.368C148.29 23.368 148.73 23.504 149.071 23.776C149.418 24.0427 149.61 24.4107 149.647 24.88H148.639C148.623 24.6773 148.527 24.504 148.351 24.36C148.175 24.216 147.943 24.144 147.655 24.144C147.394 24.144 147.181 24.2107 147.015 24.344C146.85 24.4773 146.767 24.6693 146.767 24.92C146.767 25.0907 146.818 25.232 146.919 25.344C147.026 25.4507 147.159 25.536 147.319 25.6C147.479 25.664 147.698 25.7333 147.975 25.808C148.343 25.9093 148.642 26.0107 148.871 26.112C149.106 26.2133 149.303 26.3707 149.463 26.584C149.629 26.792 149.711 27.072 149.711 27.424C149.711 27.7067 149.634 27.9733 149.479 28.224C149.33 28.4747 149.109 28.6773 148.815 28.832C148.527 28.9813 148.186 29.056 147.791 29.056Z" fill="#0D578D"/>
<path d="M61.08 6.88V18H59.256V13.136H54.024V18H52.2V6.88H54.024V11.648H59.256V6.88H61.08ZM71.7213 6.88L68.0413 13.968V18H66.2173V13.968L62.5213 6.88H64.5533L67.1293 12.336L69.7053 6.88H71.7213ZM80.9448 10.192C80.9448 10.7573 80.8114 11.2907 80.5448 11.792C80.2781 12.2933 79.8514 12.704 79.2648 13.024C78.6781 13.3333 77.9261 13.488 77.0088 13.488H74.9928V18H73.1688V6.88H77.0088C77.8621 6.88 78.5821 7.02933 79.1688 7.328C79.7661 7.616 80.2088 8.01067 80.4968 8.512C80.7954 9.01333 80.9448 9.57333 80.9448 10.192ZM77.0088 12C77.7021 12 78.2194 11.8453 78.5608 11.536C78.9021 11.216 79.0728 10.768 79.0728 10.192C79.0728 8.976 78.3848 8.368 77.0088 8.368H74.9928V12H77.0088ZM84.5084 8.352V11.616H88.3484V13.104H84.5084V16.512H88.8284V18H82.6844V6.864H88.8284V8.352H84.5084ZM96.851 18L94.291 13.552H92.899V18H91.075V6.88H94.915C95.7683 6.88 96.4883 7.02933 97.075 7.328C97.6723 7.62667 98.115 8.02667 98.403 8.528C98.7017 9.02933 98.851 9.58933 98.851 10.208C98.851 10.9333 98.6377 11.5947 98.211 12.192C97.795 12.7787 97.1497 13.1787 96.275 13.392L99.027 18H96.851ZM92.899 12.096H94.915C95.5977 12.096 96.1097 11.9253 96.451 11.584C96.803 11.2427 96.979 10.784 96.979 10.208C96.979 9.632 96.8083 9.184 96.467 8.864C96.1257 8.53333 95.6083 8.368 94.915 8.368H92.899V12.096ZM112.896 6.88V18H111.072V10.384L107.68 18H106.416L103.008 10.384V18H101.184V6.88H103.152L107.056 15.6L110.944 6.88H112.896ZM121.998 15.728H117.342L116.542 18H114.638L118.622 6.864H120.734L124.718 18H122.798L121.998 15.728ZM121.486 14.24L119.678 9.072L117.854 14.24H121.486ZM131.554 12.448L135.01 18H132.962L130.45 13.968L128.098 18H126.066L129.522 12.448L126.05 6.88H128.098L130.626 10.944L132.994 6.88H135.026L131.554 12.448Z" fill="#0D578D"/>
</svg>
