<svg width="1211" height="140" viewBox="0 0 1211 140" fill="none" xmlns="http://www.w3.org/2000/svg">
<path d="M3 173.359C23.6788 145.854 42.601 118.389 72.3814 95.3559C94.1464 78.5219 130.588 56.3801 163.695 55.5222C195.372 54.7014 220.834 60.0164 249.419 69.5628C294.913 84.7567 338.399 103.03 379.437 123.853C404.666 136.654 428.862 150.027 455.699 161.087C471.138 167.449 485.64 173.016 503.721 173.879C531.239 175.193 540.452 165.701 554.611 150.062C581.553 120.304 608.518 90.5829 636.32 61.2424C648.798 48.0743 660.827 32.5677 678.465 22.5528C691.087 15.3861 704.959 14.2325 720.323 14.2325C758.378 14.2325 798.956 20.4298 833.57 32.2252C884.426 49.5558 928.395 76.367 978.353 94.7319C998.19 102.024 1014.01 111.757 1037.13 111.581C1047.94 111.498 1057.21 110.113 1065.08 104.404C1093.62 83.6947 1120.87 59.9108 1145.79 36.9054C1161.64 22.2664 1178.45 3 1208 3" stroke="#3D4B5C" stroke-opacity="0.1" stroke-width="6" stroke-linecap="round"/>
</svg>
